<?xml version="1.0" standalone="no"?>
<!DOCTYPE svg PUBLIC "-//W3C//DTD SVG 20010904//EN"
 "http://www.w3.org/TR/2001/REC-SVG-20010904/DTD/svg10.dtd">
<svg version="1.0" xmlns="http://www.w3.org/2000/svg"
 width="225.000000pt" height="225.000000pt" viewBox="0 0 225.000000 225.000000"
 preserveAspectRatio="xMidYMid meet">
<metadata>
Created by potrace 1.16, written by Peter Selinger 2001-2019
</metadata>
<g transform="translate(0.000000,225.000000) scale(0.100000,-0.100000)"
fill="#000000" stroke="none">
<path d="M878 2223 c-18 -21 -135 -210 -166 -268 -12 -22 -26 -47 -31 -55 -8
-12 -49 -16 -228 -20 l-218 -5 -43 -70 c-126 -207 -182 -305 -182 -321 0 -11
36 -77 80 -149 44 -71 90 -149 102 -172 l21 -42 -103 -170 c-78 -130 -101
-175 -96 -193 3 -13 54 -104 113 -203 l108 -180 217 -3 217 -2 96 -163 c54
-89 104 -170 113 -179 14 -16 39 -18 247 -18 268 0 234 -13 312 125 28 50 72
123 97 163 l47 72 207 0 c114 0 212 4 219 8 15 10 233 378 233 394 0 7 -12 31
-27 53 -15 22 -62 99 -104 172 l-77 131 104 174 c57 95 104 178 104 184 0 6
-51 96 -114 200 l-114 189 -217 5 -217 5 -98 163 c-55 90 -104 170 -111 178
-9 11 -55 14 -244 14 -208 0 -233 -2 -247 -17z m532 -220 l93 -157 -26 -48
c-29 -52 -27 -75 9 -84 29 -7 44 4 70 51 l19 35 191 0 192 0 70 -112 c38 -62
81 -133 95 -157 l26 -45 -26 -45 c-14 -25 -57 -96 -95 -158 l-70 -112 -55 -3
c-40 -2 -59 -8 -67 -21 -20 -31 4 -51 67 -57 l56 -5 95 -158 95 -158 -43 -72
c-23 -40 -66 -111 -95 -159 l-53 -88 -193 0 c-182 0 -194 1 -200 19 -20 62
-83 93 -105 50 -9 -16 -6 -28 15 -65 l26 -45 -67 -117 c-37 -64 -80 -136 -96
-159 l-29 -43 -189 0 -188 0 -27 47 c-15 27 -59 98 -97 160 l-69 111 25 41
c29 45 32 61 14 79 -25 25 -52 13 -80 -33 l-28 -45 -193 0 -193 0 -39 67 c-21
38 -63 108 -92 157 -32 52 -52 95 -48 104 3 9 24 45 47 81 22 37 61 102 87
146 l46 80 55 3 c51 3 80 18 80 43 0 23 -35 39 -83 39 l-52 0 -94 157 -95 157
25 42 c13 22 55 94 94 158 l69 116 193 0 192 0 31 -46 c34 -48 62 -56 83 -22
9 13 5 28 -15 65 -26 48 -27 49 -9 78 10 17 53 87 95 158 l78 127 192 0 193 0
93 -157z"/>
<path d="M822 1608 c-18 -18 -15 -34 14 -79 l25 -40 -72 -122 c-125 -212 -110
-196 -175 -199 -41 -2 -60 -8 -68 -20 -20 -33 4 -53 67 -56 l57 -3 41 -72 c23
-40 66 -112 96 -160 l55 -88 -27 -40 c-30 -46 -28 -83 6 -92 23 -6 50 16 74
62 l16 31 189 0 189 0 31 -45 c22 -32 38 -45 55 -45 40 0 46 28 18 83 l-25 50
95 156 94 156 54 3 c55 3 79 15 79 38 0 27 -31 44 -83 44 l-52 1 -44 72 c-24
40 -66 110 -93 156 l-50 85 26 49 c29 56 22 87 -18 87 -18 0 -32 -12 -53 -45
l-28 -45 -192 0 -192 0 -28 43 c-30 44 -59 57 -81 35z m413 -167 l80 -1 24
-38 c31 -47 161 -270 161 -275 0 -5 -107 -189 -156 -269 l-29 -48 -192 0 -191
0 -97 160 -96 160 77 121 c42 67 83 137 92 155 18 40 30 43 152 39 52 -2 131
-4 175 -4z"/>
</g>
</svg>
