<?xml version="1.0" standalone="no"?>
<!DOCTYPE svg PUBLIC "-//W3C//DTD SVG 20010904//EN"
 "http://www.w3.org/TR/2001/REC-SVG-20010904/DTD/svg10.dtd">
<svg version="1.0" xmlns="http://www.w3.org/2000/svg"
 width="255.000000pt" height="255.000000pt" viewBox="0 0 255.000000 255.000000"
 preserveAspectRatio="xMidYMid meet">
<metadata>
Created by potrace 1.16, written by Peter Selinger 2001-2019
</metadata>
<g transform="translate(0.000000,255.000000) scale(0.100000,-0.100000)"
fill="#000000" stroke="none">
<path d="M1089 2304 c-8 -9 -55 -87 -104 -173 l-90 -156 -205 -5 -205 -5 -103
-175 c-56 -96 -105 -185 -108 -197 -5 -17 19 -66 90 -189 53 -91 96 -170 96
-174 0 -5 -43 -82 -95 -173 -52 -90 -95 -170 -95 -177 0 -14 163 -306 202
-362 l19 -28 202 -2 201 -3 91 -156 c49 -86 96 -164 104 -173 12 -14 42 -16
231 -16 189 0 219 2 231 16 8 9 55 87 104 173 l90 156 201 3 c145 2 205 6 212
15 24 29 212 363 212 377 0 8 -43 89 -95 178 -52 90 -95 168 -95 172 0 5 43
82 95 173 52 90 95 170 95 177 0 14 -163 306 -202 362 l-19 28 -202 2 -201 3
-91 156 c-49 86 -96 164 -104 173 -12 14 -42 16 -231 16 -189 0 -219 -2 -231
-16z m503 -221 l88 -151 -26 -46 c-20 -36 -23 -49 -14 -66 18 -34 48 -25 78
25 l27 44 182 1 181 0 83 -142 c45 -78 84 -149 86 -159 3 -10 -31 -80 -82
-168 l-87 -151 -48 0 c-54 0 -83 -20 -73 -48 10 -26 24 -32 75 -32 l46 0 86
-148 c47 -82 86 -155 86 -163 0 -8 -38 -79 -84 -159 l-84 -145 -183 -2 -184
-3 -27 45 c-30 50 -60 59 -78 25 -9 -17 -6 -30 14 -66 l26 -46 -88 -151 -87
-152 -185 0 -184 0 -88 152 -88 151 26 46 c20 36 23 49 14 66 -18 34 -48 25
-78 -25 l-27 -44 -182 -1 -181 0 -83 142 c-45 78 -84 149 -86 159 -3 10 31 80
82 168 l87 151 48 0 c54 0 83 20 73 48 -10 26 -24 32 -75 32 l-46 0 -90 155
-90 156 88 152 88 152 183 2 184 3 27 -45 c30 -50 60 -59 78 -25 9 17 6 30
-14 66 l-26 46 82 141 c44 78 85 148 91 155 7 9 54 12 190 10 l181 -3 88 -152z"/>
<path d="M1037 1703 c-12 -12 -7 -43 13 -84 l21 -40 -67 -117 c-116 -202 -106
-191 -165 -194 -59 -3 -82 -24 -63 -55 8 -13 27 -19 65 -21 l54 -3 88 -154 88
-154 -25 -47 c-29 -54 -22 -84 18 -84 18 0 31 12 50 45 l27 45 179 0 179 0 27
-46 c22 -38 31 -45 53 -42 34 4 38 34 11 88 l-21 41 88 154 88 154 54 3 c38 2
57 8 65 21 20 31 -4 52 -65 55 l-54 3 -88 155 -88 154 21 38 c28 50 24 86 -11
90 -22 3 -31 -4 -53 -42 l-27 -46 -179 0 -179 0 -27 45 c-18 32 -32 45 -48 45
-13 0 -26 -3 -29 -7z m555 -321 l88 -153 -88 -152 -88 -152 -184 0 -184 0 -88
153 -88 153 76 132 c42 73 83 142 91 155 14 22 16 22 195 20 l182 -3 88 -153z"/>
</g>
</svg>
